<!DOCTYPE svg PUBLIC "-//W3C//DTD SVG 1.1//EN" "http://www.w3.org/Graphics/SVG/1.1/DTD/svg11.dtd">

<!-- Uploaded to: SVG Repo, www.svgrepo.com, Transformed by: SVG Repo Mixer Tools -->
<svg fill="#39ff14" version="1.1" id="Layer_1" xmlns="http://www.w3.org/2000/svg" xmlns:xlink="http://www.w3.org/1999/xlink" viewBox="0 0 512 512" xml:space="preserve" width="24px" height="24px" stroke="#39ff14">

<g id="SVGRepo_bgCarrier" stroke-width="0"/>

<g id="SVGRepo_tracerCarrier" stroke-linecap="round" stroke-linejoin="round"/>

<g id="SVGRepo_iconCarrier"> <g> <g> <polygon points="411.826,378.435 411.826,345.043 378.435,345.043 378.435,378.435 345.043,378.435 345.043,411.826 378.435,411.826 378.435,445.217 411.826,445.217 411.826,411.826 445.217,411.826 445.217,378.435 "/> </g> </g> <g> <g> <rect x="478.609" y="345.043" width="33.391" height="100.174"/> </g> </g> <g> <g> <rect x="345.043" y="478.609" width="100.174" height="33.391"/> </g> </g> <g> <g> <rect x="345.043" y="278.261" width="100.174" height="33.391"/> </g> </g> <g> <g> <polygon points="311.652,100.174 311.652,66.783 278.261,66.783 278.261,33.391 244.87,33.391 244.87,0 100.174,0 100.174,33.391 66.783,33.391 66.783,66.783 33.391,66.783 33.391,100.174 0,100.174 0,244.87 33.391,244.87 33.391,278.261 66.783,278.261 66.783,311.652 100.174,311.652 100.174,345.043 33.391,345.043 33.391,378.435 0,378.435 0,445.217 311.652,445.217 311.652,345.043 244.87,345.043 244.87,311.652 278.261,311.652 278.261,278.261 311.652,278.261 311.652,244.87 345.043,244.87 345.043,100.174 "/> </g> </g> <g> <g> <rect x="311.652" y="311.652" width="33.391" height="33.391"/> </g> </g> <g> <g> <rect x="445.217" y="311.652" width="33.391" height="33.391"/> </g> </g> <g> <g> <rect x="445.217" y="445.217" width="33.391" height="33.391"/> </g> </g> <g> <g> <rect x="311.652" y="445.217" width="33.391" height="33.391"/> </g> </g> </g>

</svg>